<svg xmlns="http://www.w3.org/2000/svg" width="569" height="423.347" viewBox="0 0 569 423.347">
  <g id="Marketing-rafiki" transform="translate(0 -55)">
    <g id="freepik--background-complete--inject-2" transform="translate(0 55)">
      <rect id="Rectangle_3448" data-name="Rectangle 3448" width="37.691" height="0.285" transform="translate(474.296 390.892)" fill="#ebebeb"/>
      <rect id="Rectangle_3449" data-name="Rectangle 3449" width="9.889" height="0.285" transform="translate(367.039 393.987)" fill="#ebebeb"/>
      <rect id="Rectangle_3450" data-name="Rectangle 3450" width="21.838" height="0.285" transform="translate(451.319 380.331)" fill="#ebebeb"/>
      <rect id="Rectangle_3451" data-name="Rectangle 3451" width="49.15" height="0.285" transform="translate(59.699 382.243)" fill="#ebebeb"/>
      <rect id="Rectangle_3452" data-name="Rectangle 3452" width="7.204" height="0.285" transform="translate(118.989 382.243)" fill="#ebebeb"/>
      <rect id="Rectangle_3453" data-name="Rectangle 3453" width="106.608" height="0.285" transform="translate(149.613 387.045)" fill="#ebebeb"/>
      <path id="Path_216217" data-name="Path 216217" d="M264.433,376.826H44.7a6.5,6.5,0,0,1-6.487-6.5V61.441A6.5,6.5,0,0,1,44.7,55H264.433a6.5,6.5,0,0,1,6.5,6.5v308.83A6.5,6.5,0,0,1,264.433,376.826ZM44.7,55.228a6.213,6.213,0,0,0-6.2,6.213V370.328a6.213,6.213,0,0,0,6.2,6.213H264.433a6.225,6.225,0,0,0,6.213-6.214V61.441a6.225,6.225,0,0,0-6.214-6.213Z" transform="translate(5.273 -55)" fill="#ebebeb"/>
      <path id="Path_216218" data-name="Path 216218" d="M480.746,376.826H261a6.509,6.509,0,0,1-6.5-6.5V61.441A6.509,6.509,0,0,1,261,55H480.746a6.5,6.5,0,0,1,6.475,6.441V370.328A6.5,6.5,0,0,1,480.746,376.826ZM261,55.228a6.225,6.225,0,0,0-6.214,6.213V370.328A6.225,6.225,0,0,0,261,376.542H480.746a6.225,6.225,0,0,0,6.214-6.214V61.441a6.225,6.225,0,0,0-6.214-6.213Z" transform="translate(35.121 -55)" fill="#ebebeb"/>
      <rect id="Rectangle_3454" data-name="Rectangle 3454" width="569" height="0.285" transform="translate(0 372.581)" fill="#ebebeb"/>
      <path id="Path_216219" data-name="Path 216219" d="M416.371,284.6l4.973,3.642a.3.3,0,0,0,.125.08l4.837-4.051c15.033-13.053,32.1-27.449,18.686-39.193-9.32-8.159-20.131-.558-25.582,4.381-5.77-4.552-17.912-17.548-28.131-1.775C382.755,260.824,400.519,272.522,416.371,284.6Z" transform="translate(53.691 -29.457)" fill="#ebebeb"/>
      <path id="Path_216220" data-name="Path 216220" d="M437.732,248.9a1.5,1.5,0,1,0,.159,0Z" transform="translate(60.211 -28.242)" fill="#fff" opacity="0.5"/>
      <path id="Path_216221" data-name="Path 216221" d="M432.37,266.058c4.154-2.7,0-12.131,5.189-12.928C441.394,254.7,437.5,262.7,432.37,266.058Z" transform="translate(59.667 -27.658)" fill="#fff" opacity="0.5"/>
      <rect id="Rectangle_3455" data-name="Rectangle 3455" width="54.476" height="26.675" rx="10.82" transform="translate(80.441 263.753) rotate(-22.78)" fill="#ebebeb"/>
      <path id="Path_216222" data-name="Path 216222" d="M86.033,291.948l-2.071.876-.512-1.218,5.69-2.367.512,1.218-2.071.865,2.185,5.258-1.5.626Z" transform="translate(11.516 -22.675)" fill="#fff"/>
      <path id="Path_216223" data-name="Path 216223" d="M97.389,287.45l.285,5.69-1.388.58L93.872,291.1l.137,3.573-1.388.58-3.881-4.222,1.366-.569,2.583,2.879-.239-3.835L93.668,289l2.595,2.868-.193-3.881Z" transform="translate(12.246 -22.922)" fill="#fff"/>
      <path id="Path_216224" data-name="Path 216224" d="M102.807,288.261l-3.755,1.582a1.445,1.445,0,0,0,1.844.4,1.821,1.821,0,0,0,1.047-1l1.138.512a3.164,3.164,0,0,1-5.633.3,2.754,2.754,0,0,1,1.582-3.676,2.663,2.663,0,0,1,3.664,1.491A2.344,2.344,0,0,1,102.807,288.261Zm-4.131.751,2.447-1.036a1.343,1.343,0,0,0-2.447,1.036Z" transform="translate(13.417 -23.107)" fill="#fff"/>
      <path id="Path_216225" data-name="Path 216225" d="M107.931,286.121l-3.71,1.582a1.445,1.445,0,0,0,1.844.4,1.787,1.787,0,0,0,1.047-1l1.138.5a3.141,3.141,0,0,1-5.622.3,2.731,2.731,0,0,1,1.582-3.664,2.663,2.663,0,0,1,3.664,1.491A.725.725,0,0,0,107.931,286.121Zm-4.131.74,2.447-1.024a1.345,1.345,0,0,0-2.447,1.024Z" transform="translate(14.131 -23.403)" fill="#fff"/>
      <path id="Path_216226" data-name="Path 216226" d="M112.327,286.561a2.333,2.333,0,0,1-1.047.808,1.787,1.787,0,0,1-2.606-1.013l-.854-2.037-.774.319-.467-1.138.774-.33-.512-1.206,1.445-.6.512,1.206,1.229-.523.467,1.138-1.229.523.842,2.014a.626.626,0,0,0,.9.4,1.138,1.138,0,0,0,.5-.421Z" transform="translate(14.708 -23.762)" fill="#fff"/>
      <rect id="Rectangle_3456" data-name="Rectangle 3456" width="84.929" height="25.138" rx="3.91" transform="translate(53.349 222.575) rotate(7.22)" fill="#e6e6e6"/>
      <path id="Path_216227" data-name="Path 216227" d="M67.818,261.9l-.273,2.139,3.755.478-.193,1.5-3.744-.478-.376,2.959-1.878-.239,1.024-8.114,6.134.785-.193,1.5Z" transform="translate(8.985 -26.689)" fill="#fff"/>
      <path id="Path_216228" data-name="Path 216228" d="M71.293,265.663a3.414,3.414,0,1,1,3.084,3.653,3.243,3.243,0,0,1-3.084-3.653Zm5.019.637a1.582,1.582,0,0,0-1.366-1.923,1.741,1.741,0,0,0-.432,3.414,1.582,1.582,0,0,0,1.8-1.491Z" transform="translate(9.835 -26.365)" fill="#fff"/>
      <path id="Path_216229" data-name="Path 216229" d="M79.139,261.36l1.8.228-1.138,8.6-1.809-.228Z" transform="translate(10.763 -26.522)" fill="#fff"/>
      <path id="Path_216230" data-name="Path 216230" d="M82.138,261.75l1.809.228-1.138,8.6L81,270.353Z" transform="translate(11.178 -26.469)" fill="#fff"/>
      <path id="Path_216231" data-name="Path 216231" d="M84.083,267.283a3.414,3.414,0,1,1,3.027,3.653,3.232,3.232,0,0,1-3.027-3.653Zm5.019.637a1.616,1.616,0,1,0-1.809,1.525A1.582,1.582,0,0,0,89.1,267.92Z" transform="translate(11.6 -26.14)" fill="#fff"/>
      <path id="Path_216232" data-name="Path 216232" d="M101.464,266.32l-3.05,5.94-1.741-.216-.91-4.051-1.946,3.687-1.73-.216L90.63,265l1.7.216,1,4.336,2.06-4.029,1.525.193.956,4.415,2.048-4.029Z" transform="translate(12.507 -26.02)" fill="#fff"/>
      <rect id="Rectangle_3457" data-name="Rectangle 3457" width="84.94" height="25.15" transform="translate(77.161 176.589) rotate(37.22)" fill="#e0e0e0"/>
      <path id="Path_216233" data-name="Path 216233" d="M64.76,225.487l1.377-.74a4.859,4.859,0,0,0,1.639,2.276c.888.671,1.479.649,1.775.25.933-1.218-3.494-3.255-1.65-5.69.842-1.138,2.435-1.354,4.279,0A5.44,5.44,0,0,1,74,223.86l-1.331.785a4.734,4.734,0,0,0-1.411-1.878c-.9-.671-1.491-.6-1.809-.193-.91,1.195,3.505,3.243,1.684,5.69-.819,1.138-2.424,1.331-4.29-.08A5.815,5.815,0,0,1,64.76,225.487Z" transform="translate(8.937 -32.141)" fill="#fff"/>
      <path id="Path_216234" data-name="Path 216234" d="M71.957,227.652l2.765-3.642,1.514,1.138-2.731,3.6c-.945,1.229-.785,2.151.125,2.845s1.832.592,2.777-.649l2.731-3.585,1.479,1.138-2.811,3.642a3.7,3.7,0,0,1-5.895-4.484Z" transform="translate(9.819 -31.677)" fill="#fff"/>
      <path id="Path_216235" data-name="Path 216235" d="M83.753,238.2c-.854,1.138-2.276,1.138-3.949-.2l-3.414-2.561,4.95-6.509,3.175,2.424c1.627,1.229,1.946,2.549,1.138,3.562a1.98,1.98,0,0,1-1.957.774,2.014,2.014,0,0,1,.057,2.515Zm-1.741-7-1.138,1.536,1.5,1.138c.728.558,1.331.6,1.718.091s.182-1.07-.558-1.627Zm.353,5.69c.41-.558.193-1.138-.592-1.718l-1.753-1.343-1.229,1.616,1.764,1.331C81.329,237.374,81.932,237.454,82.365,236.9Z" transform="translate(10.542 -30.998)" fill="#fff"/>
      <path id="Path_216236" data-name="Path 216236" d="M82.66,239.077l1.366-.74a4.814,4.814,0,0,0,1.639,2.276c.888.683,1.479.66,1.787.25.922-1.218-3.494-3.255-1.661-5.69.842-1.138,2.435-1.354,4.279,0a5.349,5.349,0,0,1,1.821,2.276l-1.331.8a4.688,4.688,0,0,0-1.411-1.889c-.9-.671-1.491-.6-1.809-.193-.91,1.206,3.505,3.255,1.7,5.69-.831,1.081-2.435,1.331-4.3-.091A5.69,5.69,0,0,1,82.66,239.077Z" transform="translate(11.407 -30.265)" fill="#fff"/>
      <path id="Path_216237" data-name="Path 216237" d="M89.78,240.424a4.2,4.2,0,0,1,6.088-.683,4.268,4.268,0,0,1,1.809,3.2l-1.65.148a2.652,2.652,0,0,0-1.058-2,2.617,2.617,0,1,0-3.164,4.165,2.572,2.572,0,0,0,2.276.478l.3,1.627a4.552,4.552,0,0,1-4.552-6.93Z" transform="translate(12.299 -29.644)" fill="#fff"/>
      <path id="Path_216238" data-name="Path 216238" d="M98.024,251.84l.114-2.765-.068-.057-1.309-.99-1.377,1.809L93.87,248.7l4.95-6.509,2.811,2.151c1.741,1.32,2.151,3.05,1.036,4.552a2.64,2.64,0,0,1-2.9,1.036l-.125,3.2Zm2.595-6.35-1.229-.933-1.718,2.276,1.229.933c.922.706,1.707.626,2.276-.08s.364-1.5-.558-2.2Z" transform="translate(12.954 -29.168)" fill="#fff"/>
      <path id="Path_216239" data-name="Path 216239" d="M104.82,246.74l1.5,1.138-4.939,6.509-1.514-1.138Z" transform="translate(13.782 -28.54)" fill="#fff"/>
      <path id="Path_216240" data-name="Path 216240" d="M109.894,258.043c-.865,1.138-2.276,1.138-3.96-.193l-3.414-2.56,4.95-6.509,3.175,2.413c1.627,1.24,1.957,2.549,1.138,3.562a1.98,1.98,0,0,1-1.957.785,2,2,0,0,1,.068,2.5Zm-1.741-6.987-1.138,1.525,1.5,1.138c.728.558,1.331.6,1.718.091s.182-1.058-.558-1.627Zm.341,5.69c.421-.546.193-1.138-.592-1.718L106.15,253.7l-1.218,1.6,1.753,1.331c.774.592,1.377.66,1.8.1Z" transform="translate(14.148 -28.258)" fill="#fff"/>
      <path id="Path_216241" data-name="Path 216241" d="M114.723,262.658l-.922,1.206-5.041-3.824,4.95-6.521,4.916,3.744-.922,1.206-3.414-2.595-1.07,1.411,3.027,2.276-.9,1.138-3.016-2.276-1.138,1.5Z" transform="translate(15.009 -27.604)" fill="#fff"/>
      <path id="Path_216242" data-name="Path 216242" d="M207.385,130.92a3.118,3.118,0,0,1-3.118-3.107v-7.659h-1.5a4.006,4.006,0,0,1-3.994-3.994V79.892a3.994,3.994,0,0,1,3.983-3.972h56.593a3.983,3.983,0,0,1,3.983,3.972V116.16a4.006,4.006,0,0,1-3.994,3.994H222.361l-13.087,10.14a3.061,3.061,0,0,1-1.889.626Zm-4.632-53.862a2.856,2.856,0,0,0-2.845,2.834V116.16a2.868,2.868,0,0,0,2.856,2.856h2.64v8.8a1.98,1.98,0,0,0,1.98,1.969,1.946,1.946,0,0,0,1.138-.4l13.417-10.367h37.406a2.868,2.868,0,0,0,2.856-2.856V79.892a2.845,2.845,0,0,0-2.845-2.834h-56.6Z" transform="translate(27.43 -52.113)" fill="#e0e0e0"/>
      <rect id="Rectangle_3458" data-name="Rectangle 3458" width="7.09" height="0.865" transform="translate(248.346 19.266)" fill="#e0e0e0"/>
      <path id="Path_216243" data-name="Path 216243" d="M195.436,82.149h-.876V77.87a5.963,5.963,0,0,1,5.963-5.94H216.33v.865H200.523a5.087,5.087,0,0,0-5.087,5.075Z" transform="translate(26.849 -52.664)" fill="#e0e0e0"/>
      <path id="Path_216244" data-name="Path 216244" d="M244.54,91.2H213.45a1.741,1.741,0,0,1,0-3.414h31.09a1.741,1.741,0,1,1,0,3.414Z" transform="translate(29.263 -50.481)" fill="#e0e0e0"/>
      <path id="Path_216245" data-name="Path 216245" d="M244.54,97.228H213.45a1.741,1.741,0,0,1,0-3.414h31.09a1.741,1.741,0,1,1,0,3.414Z" transform="translate(29.263 -49.648)" fill="#e0e0e0"/>
      <path id="Path_216246" data-name="Path 216246" d="M244.54,103.258H213.45a1.741,1.741,0,0,1,0-3.414h31.09a1.741,1.741,0,1,1,0,3.414Z" transform="translate(29.263 -48.816)" fill="#e0e0e0"/>
      <path id="Path_216247" data-name="Path 216247" d="M258.3,133.338h31.09a1.741,1.741,0,1,0,0-3.414H258.3a1.741,1.741,0,1,0,0,3.414Z" transform="translate(35.358 -44.665)" fill="#e0e0e0"/>
      <path id="Path_216248" data-name="Path 216248" d="M258.3,139.418h31.09a1.741,1.741,0,1,0,0-3.414H258.3a1.741,1.741,0,1,0,0,3.414Z" transform="translate(35.358 -43.826)" fill="#e0e0e0"/>
      <path id="Path_216249" data-name="Path 216249" d="M258.3,145.418h31.09a1.741,1.741,0,1,0,0-3.414H258.3a1.741,1.741,0,1,0,0,3.414Z" transform="translate(35.358 -42.998)" fill="#e0e0e0"/>
      <path id="Path_216250" data-name="Path 216250" d="M307.714,140.3c0,5.451-3.118,10.413-8.262,14.179v12.518a1.3,1.3,0,0,1-2.276.922l-12.017-7.4a48.217,48.217,0,0,1-9.764.99c-17.832,0-32.285-9.5-32.285-21.224S257.563,119.06,275.4,119.06,307.714,128.574,307.714,140.3Z" transform="translate(33.549 -46.16)" fill="none" stroke="#e0e0e0" stroke-width="1"/>
      <path id="Path_216251" data-name="Path 216251" d="M364.654,120.08h-4.791a4.393,4.393,0,0,0-4.324,4.108L354.4,146.311a3.869,3.869,0,0,0,3.892,4.108h4.757a4.393,4.393,0,0,0,4.324-4.108l1.138-22.123a3.869,3.869,0,0,0-3.858-4.108Zm.125,26.174a1.6,1.6,0,0,1-1.582,1.5h-4.791a1.411,1.411,0,0,1-1.423-1.5l1.138-22.123a1.6,1.6,0,0,1,1.582-1.514h4.791a1.423,1.423,0,0,1,1.423,1.514Z" transform="translate(48.906 -46.019)" fill="#ebebeb"/>
      <path id="Path_216252" data-name="Path 216252" d="M400.768,122.477H386.737l3.13-7.374a4.882,4.882,0,0,0,.376-2.5l-.66-5.8a4.552,4.552,0,0,0-4.609-4.085H379.4l-.467,8.99-9.047,11.38a7.01,7.01,0,0,0-1.514,3.937l-1.138,20.7a4.757,4.757,0,0,0,4.8,5.064h19.63a6.225,6.225,0,0,0,4.552-2.083l1.832-2.037a6.191,6.191,0,0,0,1.457-2.8l4.3-19.164Z" transform="translate(50.677 -48.416)" fill="#ebebeb"/>
      <g id="Group_9133" data-name="Group 9133" transform="translate(403.3 74.061)" opacity="0.5">
        <path id="Path_216253" data-name="Path 216253" d="M364.654,120.08h-4.791a4.393,4.393,0,0,0-4.324,4.108L354.4,146.311a3.869,3.869,0,0,0,3.892,4.108h4.757a4.393,4.393,0,0,0,4.324-4.108l1.138-22.123a3.869,3.869,0,0,0-3.858-4.108Zm.125,26.174a1.6,1.6,0,0,1-1.582,1.5h-4.791a1.411,1.411,0,0,1-1.423-1.5l1.138-22.123a1.6,1.6,0,0,1,1.582-1.514h4.791a1.423,1.423,0,0,1,1.423,1.514Z" transform="translate(-354.394 -120.08)" fill="#ebebeb"/>
      </g>
      <path id="Path_216254" data-name="Path 216254" d="M126.65,111.921l-20.45-4.063,4.472-9.138,15.352,3.038Z" transform="translate(14.656 -48.967)" fill="#ebebeb"/>
      <path id="Path_216255" data-name="Path 216255" d="M124.209,101.39l-4.859,9.07,5.485,1.092Z" transform="translate(16.47 -48.598)" fill="#e0e0e0"/>
      <rect id="Rectangle_3459" data-name="Rectangle 3459" width="52.416" height="40.171" rx="5.59" transform="matrix(0.981, 0.195, -0.195, 0.981, 105.239, 55.813)" fill="#ebebeb"/>
      <path id="Path_216256" data-name="Path 216256" d="M0,0H1.138A5.906,5.906,0,0,1,7.044,5.906V34.265a5.906,5.906,0,0,1-5.906,5.906H0Z" transform="matrix(0.981, 0.195, -0.195, 0.981, 149.715, 64.612)" fill="#e0e0e0"/>
      <path id="Path_216257" data-name="Path 216257" d="M125.292,128.268a14.2,14.2,0,1,1-11.164-16.694A14.2,14.2,0,0,1,125.292,128.268Z" transform="translate(13.408 -47.231)" fill="#fafafa"/>
      <path id="Path_216258" data-name="Path 216258" d="M123.244,127.524a12.461,12.461,0,1,1-9.8-14.635A12.461,12.461,0,0,1,123.244,127.524Z" transform="translate(13.601 -47.045)" fill="#e0e0e0"/>
      <path id="Path_216259" data-name="Path 216259" d="M104.186,111.2l9.525,1.889-4.848,24.433L96.63,135.178S106.508,115.035,104.186,111.2Z" transform="translate(13.335 -47.244)" fill="#e0e0e0"/>
      <rect id="Rectangle_3460" data-name="Rectangle 3460" width="6.589" height="2.902" transform="matrix(0.981, 0.195, -0.195, 0.981, 113.169, 54.816)" fill="#ebebeb"/>
      <path id="Path_216260" data-name="Path 216260" d="M127.4,117.643a1.673,1.673,0,1,1-.251-1.258,1.673,1.673,0,0,1,.251,1.258Z" transform="translate(17.124 -46.631)" fill="#fafafa"/>
      <path id="Path_216261" data-name="Path 216261" d="M107.876,124.31A16.649,16.649,0,0,1,84.16,136a16.649,16.649,0,0,0,6.259-31.523,16.626,16.626,0,0,1,17.457,19.835Z" transform="translate(11.614 -48.178)" fill="#ebebeb"/>
      <ellipse id="Ellipse_354" data-name="Ellipse 354" cx="16.069" cy="12.302" rx="16.069" ry="12.302" transform="matrix(0.195, -0.981, 0.981, 0.195, 83.708, 85.43)" fill="#fafafa"/>
      <path id="Path_216262" data-name="Path 216262" d="M86.308,136.2a16.649,16.649,0,1,1,6.259-31.523A16.649,16.649,0,0,0,86.308,136.2Z" transform="translate(9.455 -48.384)" fill="#e6e6e6"/>
    </g>
    <g id="freepik--Shadow--inject-2" transform="translate(63.853 452.583)">
      <ellipse id="freepik--path--inject-2" cx="220.647" cy="12.882" rx="220.647" ry="12.882" fill="#f5f5f5"/>
    </g>
    <g id="freepik--Podium--inject-2" transform="translate(156.407 275.453)">
      <rect id="Rectangle_3461" data-name="Rectangle 3461" width="262.002" height="86.397" transform="translate(0 85.361)" fill="#ffab00"/>
      <rect id="Rectangle_3462" data-name="Rectangle 3462" width="262.002" height="86.386" transform="translate(0 85.373)" fill="#fff" opacity="0.2"/>
      <rect id="Rectangle_3463" data-name="Rectangle 3463" width="113.72" height="86.397" transform="translate(70.852)" fill="#ffab00"/>
      <rect id="Rectangle_3464" data-name="Rectangle 3464" width="113.72" height="86.397" transform="translate(70.852)" fill="#fff" opacity="0.2"/>
      <path id="Path_216263" data-name="Path 216263" d="M260.749,270.27l-6.43,32.171h-7.454l5.246-26.174H245.67l1.195-5.974Z" transform="translate(-122.504 -245.746)" fill="#263238"/>
    </g>
    <g id="freepik--character-2--inject-2" transform="translate(347.67 206.217)">
      <path id="Path_216264" data-name="Path 216264" d="M310.99,225.639l4.427,4.689,31.375-20.882,35.426,11.721L413.046,198.4l2.071,3.71,8.33-14.009-16.285-.216,2.071,3.7-27.54,23.978L346.188,204.1Z" transform="translate(-304.754 -187.88)" fill="#263238"/>
      <path id="Path_216265" data-name="Path 216265" d="M329.166,332.4l23.841-.865c-5.622-1.616-11.562-1.525-17.389-2.128a18.707,18.707,0,0,1-4.939-1.024c-1.5-.58-2.856-1.5-4.347-2.117a11.813,11.813,0,0,0-6.179-.774,5.688,5.688,0,0,0-1.935.569,5.371,5.371,0,0,0-2.4,2.993,11.756,11.756,0,0,0-.637,3.346h0v.5h0a18.629,18.629,0,0,0,1.57,7.26c5.531,13.394,50.334,1.957,50.334,1.957-1.57,8.785.774,15.409,2.378,24.205l4.2,23.17-4.484.489,1.809,6.487h3.949V332.4Z" transform="translate(-304.176 -168.906)" opacity="0.2"/>
      <path id="Path_216266" data-name="Path 216266" d="M368.071,392.77v7.26l-.182-.216-.979-5.1a1.382,1.382,0,0,1,0-.216,1.855,1.855,0,0,1,1.161-1.73Z" transform="translate(-297.037 -159.605)" opacity="0.2"/>
      <g id="freepik--Character--inject-2--inject-2" transform="translate(0 44.325)">
        <path id="Path_216267" data-name="Path 216267" d="M386.34,390.162l7.021-.762.683-16.49-7.033.762Z" transform="translate(-294.355 -206.671)" fill="#ff8b7b"/>
        <path id="Path_216268" data-name="Path 216268" d="M394.227,384.811l-7.966-.091a.5.5,0,0,0-.546.444.1.1,0,0,0,0,.057l-.455,6.259a1.275,1.275,0,0,0,1.229,1.275c2.754,0,3.915-.159,7.386-.364,2.151-.137,7.26-.478,10.174-1.024s2.276-3.414,1-3.414c-3.038-.057-7.693-1.058-9.662-2.652A2,2,0,0,0,394.227,384.811Z" transform="translate(-294.505 -205.041)" fill="#263238"/>
        <path id="Path_216269" data-name="Path 216269" d="M386.969,373.684,394,372.91l-.33,7.943-7.021.523Z" transform="translate(-294.313 -206.671)" opacity="0.2"/>
        <path id="Path_216270" data-name="Path 216270" d="M345.931,309.634s53.486-2.64,57.025,17.286a378.517,378.517,0,0,1,1.013,56.342l-9.923,1.912s-7.738-34.572-6.942-51.563c-14.737-1.616-54.863,5.531-61.122-5.451-5.11-8.956-4.154-14.521-4.154-14.521Z" transform="translate(-303.268 -215.419)" fill="#263238"/>
        <path id="Path_216271" data-name="Path 216271" d="M382.562,379.59l15.044-.706,1.036-5.645-16.672.569Z" transform="translate(-294.959 -206.625)" fill="#ffab00"/>
        <path id="Path_216272" data-name="Path 216272" d="M396.895,385.762a.911.911,0,0,0,.216-.888.614.614,0,0,0-.387-.467c-.865-.364-2.868.99-3.084,1.138a.148.148,0,0,0-.08.1.159.159,0,0,0,.125.194,8.7,8.7,0,0,0,1.878.273,1.935,1.935,0,0,0,1.331-.353Zm-.273-1.058a.273.273,0,0,1,.159.239.569.569,0,0,1-.114.58c-.341.33-1.263.364-2.526.091C394.96,385.09,396.144,384.521,396.622,384.7Z" transform="translate(-293.36 -205.093)" fill="#ffab00"/>
        <path id="Path_216273" data-name="Path 216273" d="M393.835,386.012c.706-.41,1.775-1.866,1.616-2.64a.615.615,0,0,0-.58-.5.842.842,0,0,0-.728.239c-.717.683-.592,2.708-.58,2.8a.159.159,0,0,0,.091.137h.08Zm.933-2.811c.25,0,.3.137.319.239.1.5-.6,1.6-1.229,2.117a3.653,3.653,0,0,1,.489-2.276.467.467,0,0,1,.364-.137Z" transform="translate(-293.361 -205.298)" fill="#ffab00"/>
        <path id="Path_216274" data-name="Path 216274" d="M373.36,319.812s11.164-3.2,13.565,3.528-.41,39.523-3.733,46.863-9.434-49.23-9.434-49.23Z" transform="translate(-296.147 -214.103)" opacity="0.3"/>
        <path id="Path_216275" data-name="Path 216275" d="M373.6,394.8l6.817-.182L379.9,378.07l-6.817.171Z" transform="translate(-296.185 -205.959)" fill="#ff8b7b"/>
        <path id="Path_216276" data-name="Path 216276" d="M380.65,390.821l-7.909.5a.523.523,0,0,0-.5.523v6.27a1.252,1.252,0,0,0,1.32,1.138c2.743-.262,4.051-.478,7.534-.728a63.9,63.9,0,0,0,9.252-.888c2.879-.66,2.162-3.482.888-3.471a19.346,19.346,0,0,1-9.377-3.084,1.958,1.958,0,0,0-1.206-.262Z" transform="translate(-296.301 -204.201)" fill="#263238"/>
        <path id="Path_216277" data-name="Path 216277" d="M383.4,391.518a.888.888,0,0,0,.148-.9.637.637,0,0,0-.41-.444c-.888-.3-2.788,1.218-3,1.388a.216.216,0,0,0-.057.1.159.159,0,0,0,.137.182,8.079,8.079,0,0,0,1.889.125A1.8,1.8,0,0,0,383.4,391.518Zm-.364-1.024a.307.307,0,0,1,.2.216.6.6,0,0,1-.08.592c-.285.353-1.24.444-2.515.285.819-.58,1.957-1.24,2.424-1.092Z" transform="translate(-295.22 -204.294)" fill="#ffab00"/>
        <path id="Path_216278" data-name="Path 216278" d="M380.414,392.02c.671-.467,1.627-2.037,1.411-2.754a.614.614,0,0,0-.626-.455.831.831,0,0,0-.717.273c-.66.728-.364,2.743-.364,2.834a.159.159,0,0,0,.1.125h.068a.159.159,0,0,0,.125-.023Zm.728-2.913c.239,0,.319.125.33.216.148.5-.489,1.65-1.07,2.208a3.551,3.551,0,0,1,.33-2.276.467.467,0,0,1,.33-.171Z" transform="translate(-295.223 -204.477)" fill="#ffab00"/>
        <path id="Path_216279" data-name="Path 216279" d="M372.54,378.246l7.625-1.286.068,10.344-6.691.774Z" transform="translate(-296.26 -206.112)" opacity="0.2"/>
        <path id="Path_216280" data-name="Path 216280" d="M336.269,311s52.815,3.937,53.486,19.346c3.892,25.036.956,58.038.956,58.038l-12.655,2.64s-6.5-30.9-7.431-53.611c-12.928,2.174-39.523,6.179-48.638-.284-8.228-7.431-5.952-22.715-5.952-22.715Z" transform="translate(-304.097 -215.215)" fill="#263238"/>
        <path id="Path_216281" data-name="Path 216281" d="M369.591,385.968l15.465-1.309.319-6.76-16.945,1.753Z" transform="translate(-296.827 -205.982)" fill="#ffab00"/>
        <path id="Path_216282" data-name="Path 216282" d="M337,271c.3,1.206.569,2.276.888,3.346s.649,2.128,1.013,3.232c.706,2.128,1.514,4.233,2.39,6.373a52.733,52.733,0,0,0,7.09,12.45,24.539,24.539,0,0,0,2.8,2.959,15.135,15.135,0,0,0,3.812,2.5,16.615,16.615,0,0,0,8.49,1.377,23.634,23.634,0,0,0,7.363-1.98,29.382,29.382,0,0,0,3.2-1.661,15.512,15.512,0,0,0,1.5-.99c.478-.376.933-.694,1.491-1.138l-2.731-4.552-1.354.41-1.422.387c-.967.239-1.912.455-2.891.615a20.485,20.485,0,0,1-5.337.273,8.7,8.7,0,0,1-4.017-1.309,8.135,8.135,0,0,1-1.445-1.206,18.212,18.212,0,0,1-1.491-1.866,33.356,33.356,0,0,1-2.743-4.848c-.865-1.753-1.627-3.6-2.356-5.5s-1.388-3.824-2.048-5.758l-.933-2.936c-.3-.967-.615-2-.853-2.845Z" transform="translate(-301.164 -221.102)" fill="#ff8b7b"/>
        <path id="Path_216283" data-name="Path 216283" d="M336.337,265.882c4.256-5.781,11.061-3.926,15.135,4.939a87.3,87.3,0,0,1,5.44,14.669L341.3,291.51C336.872,283.18,331.956,271.823,336.337,265.882Z" transform="translate(-301.492 -221.899)" fill="#ffab00"/>
        <path id="Path_216284" data-name="Path 216284" d="M336.337,265.882c4.256-5.781,11.061-3.926,15.135,4.939a87.3,87.3,0,0,1,5.44,14.669L341.3,291.51C336.872,283.18,331.956,271.823,336.337,265.882Z" transform="translate(-301.492 -221.899)" opacity="0.1"/>
        <path id="Path_216285" data-name="Path 216285" d="M342.781,273.6c-1.331-.842-3.835,4.37-4.871,10.47.933,2.083,1.935,4.074,2.925,5.929l9.389-3.642C348.482,280.736,345.762,275.5,342.781,273.6Z" transform="translate(-301.039 -220.388)" opacity="0.3"/>
        <path id="Path_216286" data-name="Path 216286" d="M370.708,288.122l3.414-1.992,1.457,7.682s-5.69,3.653-7.408.831l.114-1.992a6.316,6.316,0,0,1,2.424-4.529Z" transform="translate(-296.863 -218.647)" fill="#ff8b7b"/>
        <path id="Path_216287" data-name="Path 216287" d="M377.707,285.68l3.221,6.1-6.122,2.094-1.445-7.682Z" transform="translate(-296.147 -218.709)" fill="#ff8b7b"/>
        <path id="Path_216288" data-name="Path 216288" d="M339.031,261.156l-8.125-.876-10,1.195a7.01,7.01,0,0,0-6.111,5.929,179.6,179.6,0,0,0-1.331,22.237c-.091,8.376,1.229,20.712,2.936,31.864l33.514-5.144c-.6-29.36,1.32-38.533,1.354-46.328a7.01,7.01,0,0,0-5.076-6.76Z" transform="translate(-304.413 -222.214)" fill="#ffab00"/>
        <path id="Path_216289" data-name="Path 216289" d="M339.031,261.156l-8.125-.876-10,1.195a7.01,7.01,0,0,0-6.111,5.929,179.6,179.6,0,0,0-1.331,22.237c-.091,8.376,1.229,20.712,2.936,31.864l33.514-5.144c-.6-29.36,1.32-38.533,1.354-46.328a7.01,7.01,0,0,0-5.076-6.76Z" transform="translate(-304.413 -222.214)" fill="#ffab00"/>
        <path id="Path_216290" data-name="Path 216290" d="M318.079,264.011c6.68-1.388,6.828,13.861,4.131,25.1-.785,3.255-4.654,2.026-5.963,1.229C311.934,287.738,309.9,269.154,318.079,264.011Z" transform="translate(-304.549 -221.711)" opacity="0.3"/>
        <path id="Path_216291" data-name="Path 216291" d="M318.731,284.271c.467,6.589-1.514,10.105,2.06,12.188s24.569,8.319,25.036,7.443c-.956,1.616-1.889,3-2.845,4.632q-9.013-1.058-18.037-1.912c-4.393-.421-11.482-1.32-15-3.983-3.186-2.413-2.982-13.44-2.708-21.383C309.991,279.537,318.731,284.271,318.731,284.271Z" transform="translate(-305.291 -219.371)" fill="#ff8b7b"/>
        <path id="Path_216292" data-name="Path 216292" d="M316.31,261.782c6.828-2.276,9.616,3.2,7.818,12.746a85.612,85.612,0,0,1-4.051,15.113l-14.566-4.1C306.819,276.189,309.356,264.081,316.31,261.782Z" transform="translate(-305.51 -222.077)" fill="#ffab00"/>
        <path id="Path_216293" data-name="Path 216293" d="M323.823,261.858a5.975,5.975,0,0,0,1.138,4.108,17.968,17.968,0,0,0,3.061,3.107c1.411,1.206,3.073,2.492,4.9,2.185s2.629-1.138,3.243-3.2c1.525,2.276,1.639,3.414,3.232,3.551a3.585,3.585,0,0,0,2.617-1.491,5.77,5.77,0,0,0,1.957-3.949c.285-2.97-2.208-5.69-5.03-6.589a35.05,35.05,0,0,0-8.842-1.468C327.522,257.9,324.256,258.819,323.823,261.858Z" transform="translate(-302.986 -222.517)" fill="#263238"/>
        <path id="Path_216294" data-name="Path 216294" d="M329.962,248.72l3.778,4.108L338.9,258.4a6.134,6.134,0,0,0-.956,2.071,3.494,3.494,0,0,0,1.514,4.347c.774.33,1.275,4.279-3.721,4.029a10.39,10.39,0,0,1-7.636-3.186c-.956-1.206-1.218-1.855-.319-3.221C330.383,258.575,330.383,253.079,329.962,248.72Z" transform="translate(-302.513 -223.809)" fill="#ff8b7b"/>
        <path id="Path_216295" data-name="Path 216295" d="M336.831,256.491l-3.266-4.051a1.412,1.412,0,0,1-.114.4,12,12,0,0,0-.25,1.8c-.125,2.06,1.889,4.632,3.8,5.69l.137-.421a7.8,7.8,0,0,1,.865-1.969.228.228,0,0,1,.091-.091Z" transform="translate(-301.689 -223.296)" opacity="0.2"/>
        <path id="Path_216296" data-name="Path 216296" d="M340.38,249.14c3.016-5.883,2.378-9.218,5.28-12.347,1.559-.694,4.29,2.185,2.469,7.078S340.38,249.14,340.38,249.14Z" transform="translate(-300.698 -225.469)" fill="#263238"/>
        <path id="Path_216297" data-name="Path 216297" d="M329.742,243c-.353,6.828-.853,10.8,2.2,14.566,4.552,5.69,13.315,3.414,15.67-3.255,2.117-5.952,2.276-16.114-4.074-19.414a9.468,9.468,0,0,0-12.757,4.12A9.332,9.332,0,0,0,329.742,243Z" transform="translate(-302.203 -225.861)" fill="#ff8b7b"/>
        <path id="Path_216298" data-name="Path 216298" d="M329.523,248.882l5.565,2.2-1.4-5.974,3.027-1.73,3.7-5.531s-7.966-2.344-10.39-2.663c-.842-.114-3.767,2.162-4.2,3.118a7.83,7.83,0,0,0,1.286,8.148A17.426,17.426,0,0,0,329.523,248.882Z" transform="translate(-302.791 -225.678)" fill="#263238"/>
        <path id="Path_216299" data-name="Path 216299" d="M332.024,229.368c1.753-.854,3.881.216,5.747.785a47.678,47.678,0,0,0,5.6,1.616,7.056,7.056,0,0,0,4.9-.6,3.471,3.471,0,0,0,1.491-4.336,7.238,7.238,0,0,1,1,11.9,9.81,9.81,0,0,1-6.066,1.946,29.065,29.065,0,0,1-6.407-.888c-2.811-.6-6.828-.694-9.445-1.98S326.675,231.951,332.024,229.368Z" transform="translate(-302.504 -226.83)" fill="#263238"/>
        <path id="Path_216300" data-name="Path 216300" d="M326.773,246.575a6.259,6.259,0,0,0,2.071,3.926c1.5,1.275,3.232-.228,3.414-2.162.114-1.73-.831-4.222-2.606-4.757S326.545,244.686,326.773,246.575Z" transform="translate(-302.579 -224.532)" fill="#ff8b7b"/>
        <path id="Path_216301" data-name="Path 216301" d="M338.792,245.3c-.08.569.137,1.081.512,1.138s.683-.33.808-.888a.922.922,0,0,0-.5-1.138C339.236,244.343,338.883,244.741,338.792,245.3Z" transform="translate(-300.919 -224.405)" fill="#263238"/>
        <path id="Path_216302" data-name="Path 216302" d="M344.352,246.337c-.091.569.137,1.138.5,1.138a.934.934,0,0,0,.819-.876c.091-.546-.148-1.081-.512-1.138S344.432,245.779,344.352,246.337Z" transform="translate(-300.153 -224.26)" fill="#263238"/>
        <path id="Path_216303" data-name="Path 216303" d="M342.63,246.27a18.366,18.366,0,0,0,1.343,4.62,2.743,2.743,0,0,1-2.333-.159Z" transform="translate(-300.524 -224.147)" fill="#ff5652"/>
        <path id="Path_216304" data-name="Path 216304" d="M341.159,253.28a4.871,4.871,0,0,1-3.266-2.037.188.188,0,0,1,.285-.228,4.677,4.677,0,0,0,3.653,1.946.171.171,0,0,1,.011.341h0A6.165,6.165,0,0,1,341.159,253.28Z" transform="translate(-301.044 -223.498)" fill="#263238"/>
        <path id="Path_216305" data-name="Path 216305" d="M338.028,243.425a.57.57,0,0,1-.137-.091.341.341,0,0,1,0-.478,3.175,3.175,0,0,1,2.9-.8.33.33,0,0,1,.239.4h0a.33.33,0,0,1-.421.228,2.572,2.572,0,0,0-2.276.649.319.319,0,0,1-.307.091Z" transform="translate(-301.055 -224.739)" fill="#263238"/>
        <path id="Path_216306" data-name="Path 216306" d="M344.871,243.051a.363.363,0,0,1,0-.159.341.341,0,0,1,.41-.25,3.186,3.186,0,0,1,2.276,1.935.341.341,0,0,1-.637.216,2.538,2.538,0,0,0-1.832-1.5A.341.341,0,0,1,344.871,243.051Z" transform="translate(-300.079 -224.649)" fill="#263238"/>
      </g>
      <path id="Path_216307" data-name="Path 216307" d="M361.018,321.614l45.691-5.975a.865.865,0,0,0,.751-.967h0a.876.876,0,0,0-.967-.751l-45.7,5.974a.876.876,0,0,0-.74.979h0a.854.854,0,0,0,.967.74Z" transform="translate(-297.984 -170.487)" fill="#ffab00"/>
      <path id="Path_216308" data-name="Path 216308" d="M361.018,321.614l45.691-5.975a.865.865,0,0,0,.751-.967h0a.876.876,0,0,0-.967-.751l-45.7,5.974a.876.876,0,0,0-.74.979h0a.854.854,0,0,0,.967.74Z" transform="translate(-297.984 -170.487)" opacity="0.5"/>
      <path id="Path_216309" data-name="Path 216309" d="M341.214,320.66l22.168.273a.853.853,0,0,0,.876-.853h0a.865.865,0,0,0-.853-.876l-22.168-.273a.876.876,0,0,0-.876.853h0a.853.853,0,0,0,.853.876Z" transform="translate(-300.701 -169.795)" fill="#ffab00"/>
      <path id="Path_216310" data-name="Path 216310" d="M341.214,320.66l22.168.273a.853.853,0,0,0,.876-.853h0a.865.865,0,0,0-.853-.876l-22.168-.273a.876.876,0,0,0-.876.853h0a.853.853,0,0,0,.853.876Z" transform="translate(-300.701 -169.795)" fill="#fff" opacity="0.5"/>
      <path id="Path_216311" data-name="Path 216311" d="M364.795,320.3l-24.41-.193s-.819-.478.819-.8,22.828-3.118,22.828-3.118Z" transform="translate(-300.726 -170.173)" fill="#ffab00"/>
      <path id="Path_216312" data-name="Path 216312" d="M364.725,320.3l-23.83-.262s-.819-.489.819-.8,22.248-3.05,22.248-3.05Z" transform="translate(-300.655 -170.173)" fill="#ffab00"/>
      <path id="Path_216313" data-name="Path 216313" d="M364.725,320.3l-23.83-.262s-.819-.489.819-.8,22.248-3.05,22.248-3.05Z" transform="translate(-300.655 -170.173)" fill="#fff" opacity="0.2"/>
      <path id="Path_216314" data-name="Path 216314" d="M362.26,323l42.607-5.576a3.084,3.084,0,0,0,2.617-3.118l-.933-21.827a2.5,2.5,0,0,0-2.856-2.4l-42.607,5.61a3.084,3.084,0,0,0-2.617,3.13l.933,21.815A2.492,2.492,0,0,0,362.26,323Z" transform="translate(-298.202 -173.781)" fill="#ffab00"/>
      <path id="Path_216315" data-name="Path 216315" d="M362.26,323l42.607-5.576a3.084,3.084,0,0,0,2.617-3.118l-.933-21.827a2.5,2.5,0,0,0-2.856-2.4l-42.607,5.61a3.084,3.084,0,0,0-2.617,3.13l.933,21.815A2.492,2.492,0,0,0,362.26,323Z" transform="translate(-298.202 -173.781)" opacity="0.4"/>
      <path id="Path_216316" data-name="Path 216316" d="M363.35,322.794l42.607-5.565a3.1,3.1,0,0,0,2.617-3.129l-.933-21.8a2.5,2.5,0,0,0-2.856-2.413l-42.607,5.576a3.073,3.073,0,0,0-2.617,3.118l.933,21.827a2.492,2.492,0,0,0,2.856,2.39Z" transform="translate(-298.051 -173.807)" fill="#ffab00"/>
      <path id="Path_216317" data-name="Path 216317" d="M363.35,322.794l42.607-5.565a3.1,3.1,0,0,0,2.617-3.129l-.933-21.8a2.5,2.5,0,0,0-2.856-2.413l-42.607,5.576a3.073,3.073,0,0,0-2.617,3.118l.933,21.827a2.492,2.492,0,0,0,2.856,2.39Z" transform="translate(-298.051 -173.807)" fill="#fff" opacity="0.2"/>
      <path id="Path_216318" data-name="Path 216318" d="M348.422,274.576c-4.654-.979-9.525,3.516-10.879,10.014s1.32,12.575,5.974,13.542,9.536-3.516,10.891-10.026S353.088,275.544,348.422,274.576ZM344.4,297.029c-2.97-.615-4.393-5.838-3.186-11.665s4.552-10.049,7.579-9.434,4.4,5.849,3.2,11.676S347.386,297.643,344.4,297.029Z" transform="translate(-301.138 -175.934)" fill="#263238"/>
      <path id="Path_216319" data-name="Path 216319" d="M351.548,287.423c-1.206,5.827-4.552,10.049-7.568,9.423s-4.4-5.838-3.2-11.665,4.552-10.049,7.579-9.434S352.766,281.608,351.548,287.423Z" transform="translate(-300.702 -175.763)" fill="#fff" opacity="0.5"/>
      <path id="Path_216320" data-name="Path 216320" d="M342,294.78l-5,15.75s.262,1.946,2.549.979,3.96-16.182,3.96-16.182Z" transform="translate(-301.164 -173.128)" fill="#263238"/>
      <path id="Path_216321" data-name="Path 216321" d="M337.571,298.7l3.516-1.138v8.728s-7.636,2.06-8.228-1.468l.922-1.935C334.533,301.19,335.659,299.2,337.571,298.7Z" transform="translate(-301.736 -172.744)" fill="#ff8b7b"/>
      <path id="Path_216322" data-name="Path 216322" d="M345.488,299.8l-.888,4.928-4.541,1.548.046-8.728Z" transform="translate(-300.742 -172.746)" fill="#ff8b7b"/>
      <path id="Path_216323" data-name="Path 216323" d="M375.77,259.821l-.034.011-.046-.011.046-.011Z" transform="translate(-295.825 -177.954)" fill="#f0f0f0"/>
    </g>
    <g id="freepik--character-1--inject-2" transform="translate(83.973 159.446)">
      <g id="freepik--group--inject-2" transform="translate(1.96 12.442)">
        <path id="Path_216324" data-name="Path 216324" d="M145.537,172.551c.353-.068.74.307.854.842s-.068,1.058-.432,1.138-.74-.307-.854-.854S145.172,172.619,145.537,172.551Z" transform="translate(-65.913 -155.666)" fill="#263238"/>
        <path id="Path_216325" data-name="Path 216325" d="M146.592,179.5a3.209,3.209,0,0,0,2.5-1.047,19.574,19.574,0,0,1-3.6-4.1Z" transform="translate(-65.854 -155.416)" fill="#b74d3c"/>
        <path id="Path_216326" data-name="Path 216326" d="M143.066,171.4a2.6,2.6,0,0,1,2.174-.945h.114a.33.33,0,1,0,0-.66,3.221,3.221,0,0,0-2.754,1.138.364.364,0,0,0-.08.216.353.353,0,0,0,.33.341.41.41,0,0,0,.216-.091Z" transform="translate(-66.265 -156.048)" fill="#263238"/>
        <path id="Path_216327" data-name="Path 216327" d="M141.121,202.465c-9.377.1-10.811-5-10.811-5,2.788-2.731,2.925-7.738,2.333-12.2a9.935,9.935,0,0,0,2.788,2.663,8.512,8.512,0,0,0,6.828,1.229.194.194,0,0,0,.114,0,2.278,2.278,0,0,0,0,.273c-.558,3.573-.057,7.4,3.687,8.524C146.049,197.925,151.454,202.351,141.121,202.465Z" transform="translate(-67.95 -153.91)" fill="#b25b52"/>
        <path id="Path_216328" data-name="Path 216328" d="M142.449,188.207c-.1.432-.193.865-.262,1.32a.194.194,0,0,1-.114,0,8.512,8.512,0,0,1-6.828-1.229,9.935,9.935,0,0,1-2.788-2.663c-.148-1.138-.353-2.276-.558-3.255l10.242,5.588Z" transform="translate(-67.73 -154.309)" fill="#b25b52"/>
        <path id="Path_216329" data-name="Path 216329" d="M127.8,197.545s1.479-4.552,3.721-6.02,12.051.057,13.588.66,3.1,4.142,3.1,4.142Z" transform="translate(-68.296 -153.132)" fill="#ffab00"/>
        <path id="Path_216330" data-name="Path 216330" d="M128.34,213.856a5.235,5.235,0,0,0,2.094-10.242h0c-4.211-.91-8.546-1.98-12.768-3.061s-5.69-1.138-9.662-2.526c-1.013-.33-1.992-.717-2.959-1.138l-.535-.2a1.138,1.138,0,0,1-.25-.1,4.551,4.551,0,0,1-.728-.5c-1.331-1.218-10.242-12.814-11.938-16.751l-.057-.125a2.606,2.606,0,0,0-4.984,1.366c.535,4.78,9.3,20.916,11.084,22.976a13.884,13.884,0,0,0,1.878,1.684,12.633,12.633,0,0,0,2.117,1.275c1.138.535,8.717,2.811,13.224,4.12s8.888,2.378,13.531,3.255Z" transform="translate(-73.992 -154.968)" fill="#b25b52"/>
        <path id="Path_216331" data-name="Path 216331" d="M91.155,178.4v.91A2.117,2.117,0,0,1,89.9,181.4a10.242,10.242,0,0,1-5.053.637l1.4-7.852,3.858,2.5a2.185,2.185,0,0,1,1.047,1.707Z" transform="translate(-74.223 -155.439)" fill="#b25b52"/>
        <path id="Path_216332" data-name="Path 216332" d="M86.927,174.452l-1.4,7.852L80.3,179.22l-.114-7.09Z" transform="translate(-74.866 -155.723)" fill="#b25b52"/>
        <path id="Path_216333" data-name="Path 216333" d="M126.764,195.46c-2.014.3-9.98,2-16.592.137L109.74,209.1s11.482,5.69,16.683,1.582S134.89,199.17,126.764,195.46Z" transform="translate(-70.788 -152.504)" fill="#263238"/>
        <path id="Path_216334" data-name="Path 216334" d="M112.329,212.8l-5.189-2.333,1.491-16.148,4.836.876Z" transform="translate(-71.147 -152.661)" fill="#ffab00"/>
        <path id="Path_216335" data-name="Path 216335" d="M152.551,195.093c-1.514-.25-3.221-.478-4.95-.626a138.84,138.84,0,0,0-15.693.171l-3.414.33c-5.462.4-10.959,5.144-9.866,10.515,6.066,29.588,4.336,46.066,3.778,50.88l36.905-.4c3.824-30.385,2.765-45.7,1.275-53.145a9.775,9.775,0,0,0-8.034-7.727Z" transform="translate(-69.581 -152.661)" fill="#263238"/>
        <path id="Path_216336" data-name="Path 216336" d="M156.936,243.922l-1.138,10.72c2.356-19.027,2.834-32.137,2.492-41.116l-14.02-9.366C150.563,224.018,152.623,230.288,156.936,243.922Z" transform="translate(-66.023 -151.303)" opacity="0.2"/>
        <path id="Path_216337" data-name="Path 216337" d="M149.609,182.9a9.491,9.491,0,0,1-4.552,7.966h-.08a7.682,7.682,0,0,1-2.276.979.194.194,0,0,1-.114,0,8.512,8.512,0,0,1-6.828-1.229,9.935,9.935,0,0,1-2.788-2.663c-1.844-2.515-2.606-5.883-3.926-10.618a9.548,9.548,0,0,1-.228-4.279,9.366,9.366,0,0,1,10.879-7.545C146.718,166.84,149.757,176.57,149.609,182.9Z" transform="translate(-68.175 -156.658)" fill="#b25b52"/>
        <path id="Path_216338" data-name="Path 216338" d="M143.276,188.188a7.682,7.682,0,0,1-2.276.979l.262-4.176S142.753,188.2,143.276,188.188Z" transform="translate(-66.475 -153.949)" opacity="0.2"/>
        <path id="Path_216339" data-name="Path 216339" d="M144.559,178.848a10.356,10.356,0,0,1-4.188,7.42,2.834,2.834,0,0,1-1,.489c-1.138.273-2.276-.751-2.856-1.855a11.255,11.255,0,0,1-.91-4.632c-.137-3.744.33-7.841,2.959-10.5a3.55,3.55,0,0,1,2.276-1.206C144.183,168.435,144.8,176.708,144.559,178.848Z" transform="translate(-67.222 -156.216)" fill="#263238"/>
        <path id="Path_216340" data-name="Path 216340" d="M131.856,163.512a3.687,3.687,0,0,0-4.324,5.394c-2.97.922-5.77,3.152-6.361,6.2s1.935,6.612,5.03,6.259a2.572,2.572,0,0,0,2.344,4.472c2.413,4.006,9.923,4.882,13.554,1.923.854-.694.239-1.423.421-2.5a2.549,2.549,0,0,0-1.331-2.765l.785-2.72-2.276-2.549c2.071-1.6,4.245-3.334,5.144-5.792s-.137-5.815-2.686-6.418A2.811,2.811,0,0,0,144,161.043a2.868,2.868,0,0,0-4.347-.455c-.717-.99-1.3-2.071-2.515-2.4C132.368,156.866,131.06,161.987,131.856,163.512Z" transform="translate(-69.223 -157.677)" fill="#263238"/>
        <path id="Path_216341" data-name="Path 216341" d="M142.339,173.253c1.98.58,3,3.482,3.084,5.337.1,2.037-1.263,3.323-3.038,1.957a7.693,7.693,0,0,1-2.72-4.165C139.141,174.391,140.336,172.684,142.339,173.253Z" transform="translate(-66.676 -155.584)" fill="#b25b52"/>
        <path id="Path_216342" data-name="Path 216342" d="M138.938,402.857a.171.171,0,0,1-.148-.137.182.182,0,0,1,.08-.182c.137-.057,2.663-1.57,3.892-1.263a.854.854,0,0,1,.569.4.637.637,0,0,1,0,.751c-.3.432-1.138.58-2.139.6a12.7,12.7,0,0,1-2.253-.171Zm3.414-1.3a7.772,7.772,0,0,0-2.868,1c1.377.159,3.232.114,3.562-.364.068-.068.114-.171,0-.387a.512.512,0,0,0-.353-.239,1.061,1.061,0,0,0-.33,0Z" transform="translate(-66.78 -124.107)" fill="#ffab00"/>
        <path id="Path_216343" data-name="Path 216343" d="M138.871,403.032a.2.2,0,0,1-.091-.159,4.711,4.711,0,0,1,1.07-2.845,1.286,1.286,0,0,1,.979-.307c.478,0,.649.273.66.467.159.853-1.548,2.447-2.435,2.856h-.023a.2.2,0,0,1-.159-.011Zm1.844-2.982a.91.91,0,0,0-.6.262,4.108,4.108,0,0,0-.922,2.276c.9-.569,2.048-1.832,1.957-2.333,0,0,0-.193-.353-.193H140.7Z" transform="translate(-66.781 -124.317)" fill="#ffab00"/>
        <path id="Path_216344" data-name="Path 216344" d="M132.167,387.807l7.295-.137-.262,16.877-7.34.148Z" transform="translate(-67.736 -125.979)" fill="#b25b52"/>
        <path id="Path_216345" data-name="Path 216345" d="M141.243,402.283c5.053,2.959,6.6,3.073,12.393,4.222,1.263.25.535,3.323-2.492,3.414-5,.091-5.531-.137-9.787,0-3.653.068-7.841.319-10.743.421h-.262a1.058,1.058,0,0,1-.819-1.263l1.286-6.555a.649.649,0,0,1,.615-.512l8.023-.159A3.414,3.414,0,0,1,141.243,402.283Z" transform="translate(-68.06 -124.022)" fill="#263238"/>
        <path id="Path_216346" data-name="Path 216346" d="M132.138,387.817l-.148,8.672,7.329-.137.125-8.672Z" transform="translate(-67.718 -125.978)" opacity="0.2"/>
        <path id="Path_216347" data-name="Path 216347" d="M85.265,404.183a.171.171,0,0,1-.319,0c-.068-.125-1.525-2.663-1.138-3.881a.91.91,0,0,1,.4-.558.671.671,0,0,1,.774,0c.421.3.546,1.138.546,2.139a12.6,12.6,0,0,1-.262,2.3Zm-1.218-3.414a7.7,7.7,0,0,0,.91,2.856c.193-1.366.182-3.209-.3-3.551,0-.068-.159-.114-.376,0a.5.5,0,0,0-.25.353,1.138,1.138,0,0,0,0,.33Z" transform="translate(-74.376 -124.33)" fill="#ffab00"/>
        <path id="Path_216348" data-name="Path 216348" d="M85.469,404.017a.159.159,0,0,1-.159.068,4.62,4.62,0,0,1-2.822-1.138,1.2,1.2,0,0,1-.3-.967c0-.478.285-.649.478-.649.842-.148,2.424,1.582,2.822,2.458v.068a.159.159,0,0,1-.023.159ZM82.5,402.15a.99.99,0,0,0,.25.6,4.051,4.051,0,0,0,2.276.933c-.546-.9-1.787-2.071-2.276-1.98,0,0-.193,0-.193.341v.1Z" transform="translate(-74.592 -124.095)" fill="#ffab00"/>
        <path id="Path_216349" data-name="Path 216349" d="M88.883,388.61l7.124.364-3.846,17.093L84.98,405.7Z" transform="translate(-74.205 -125.849)" fill="#b25b52"/>
        <path id="Path_216350" data-name="Path 216350" d="M84.557,403.02c-1.923,2.276-2.936,3.516-8.546,5.394-1.24.41-.125,3.357,2.891,3.027,4.973-.535,2.276-.467,6.464-.933,3.63-.387,7.818-.671,10.709-.933a.908.908,0,0,0,.3,0,1.07,1.07,0,0,0,.671-1.354l-2.083-6.327a.626.626,0,0,0-.671-.432l-7.966.853a2.5,2.5,0,0,0-1.764.706Z" transform="translate(-75.512 -124.076)" fill="#263238"/>
        <path id="Path_216351" data-name="Path 216351" d="M88.642,388.62l-1.992,8.774,7.147.376,1.98-8.8Z" transform="translate(-73.975 -125.848)" opacity="0.2"/>
        <path id="Path_216352" data-name="Path 216352" d="M126.948,248.933a75.87,75.87,0,0,0-6.475,13.736c-3.687,10.663-2.185,16.171-3.346,23.352-2.037,12.666-5.28,22.407-7.5,32.023-6.919,30.1-24.308,93.68-24.308,93.68l12.928,2.561s25.127-73.97,31.454-95.524c5.69-19.4,20.313-70.351,20.313-70.351Z" transform="translate(-74.158 -145.197)" fill="#ffab00"/>
        <path id="Path_216353" data-name="Path 216353" d="M126.948,248.933a75.87,75.87,0,0,0-6.475,13.736c-3.687,10.663-2.185,16.171-3.346,23.352-2.037,12.666-5.28,22.407-7.5,32.023-6.919,30.1-24.308,93.68-24.308,93.68l12.928,2.561s25.127-73.97,31.454-95.524c5.69-19.4,20.313-70.351,20.313-70.351Z" transform="translate(-74.158 -145.197)" fill="#ffab00"/>
        <path id="Path_216354" data-name="Path 216354" d="M84,389.85V394.4l15.545,1.354s1.263-5.03,1.206-5.03Z" transform="translate(-74.341 -125.678)" fill="#ffab00"/>
        <path id="Path_216355" data-name="Path 216355" d="M137.93,269.014c-4.552,16-10.435,36.245-13.554,46.863-.148.512-.307,1.047-.467,1.616.945-17.662,3.79-47.273,12.62-48.547a3.232,3.232,0,0,1,1.4.068Z" transform="translate(-68.833 -142.369)" opacity="0.3"/>
        <path id="Path_216356" data-name="Path 216356" d="M132.659,248.611s-2.754,48.638-2.708,71.614c.057,21.406.353,93.828.353,93.828l12.416-.239s7.169-73.879,8.911-95.66c1.661-20.621,6.066-69.634,6.066-69.634Z" transform="translate(-68 -145.182)" fill="#ffab00"/>
        <path id="Path_216357" data-name="Path 216357" d="M132.659,248.611s-2.754,48.638-2.708,71.614c.057,21.406.353,93.828.353,93.828l12.416-.239s7.169-73.879,8.911-95.66c1.661-20.621,6.066-69.634,6.066-69.634Z" transform="translate(-68 -145.182)" fill="#ffab00"/>
        <path id="Path_216358" data-name="Path 216358" d="M128.57,390.294l.512,4.552,15.09-.3s.6-5.11.546-5.11Z" transform="translate(-68.19 -125.735)" fill="#ffab00"/>
        <path id="Path_216359" data-name="Path 216359" d="M172.22,185.056l3.767-2.606c.865,4.1,4.757,7.295,7.716,9.2,1.411.91,1.935,2.982.933,3.676l-2.447,1.707C179.219,199.076,172.22,185.056,172.22,185.056Z" transform="translate(-62.166 -154.299)" fill="#ffab00"/>
        <path id="Path_216360" data-name="Path 216360" d="M172.088,187.743l8.626-5.986a6.2,6.2,0,0,0,1.57-8.615h0a6.225,6.225,0,0,0-8.626-1.57l-8.626,5.986a6.2,6.2,0,0,0-1.559,8.615h0a6.2,6.2,0,0,0,8.615,1.57Z" transform="translate(-63.525 -155.951)" fill="#ffab00"/>
        <path id="Path_216361" data-name="Path 216361" d="M172.088,187.743l8.626-5.986a6.2,6.2,0,0,0,1.57-8.615h0a6.225,6.225,0,0,0-8.626-1.57l-8.626,5.986a6.2,6.2,0,0,0-1.559,8.615h0a6.2,6.2,0,0,0,8.615,1.57Z" transform="translate(-63.525 -155.951)" opacity="0.3"/>
        <path id="Path_216362" data-name="Path 216362" d="M197.586,180.181,181.4,187.009c-1.275.888-12.723-15.625-11.38-16.512l12.063-12.757Z" transform="translate(-62.484 -157.709)" fill="#ffab00"/>
        <path id="Path_216363" data-name="Path 216363" d="M187.171,169.784c4.3,6.191,8.307,10.857,8.956,10.4s-2.276-5.838-6.6-12.04-8.307-10.857-8.956-10.4S182.881,163.582,187.171,169.784Z" transform="translate(-61.026 -157.713)" fill="#ffab00"/>
        <path id="Path_216364" data-name="Path 216364" d="M187.171,169.784c4.3,6.191,8.307,10.857,8.956,10.4s-2.276-5.838-6.6-12.04-8.307-10.857-8.956-10.4S182.881,163.582,187.171,169.784Z" transform="translate(-61.026 -157.713)" opacity="0.3"/>
        <path id="Path_216365" data-name="Path 216365" d="M190.321,166.76c-1.047-1.514-3.255-2.048-3.972-1.548s-.455,2.139.592,3.653,2.492,2.276,3.209,1.832a3.118,3.118,0,0,0,.171-3.937Z" transform="translate(-60.272 -156.703)" fill="#ffab00"/>
        <path id="Path_216366" data-name="Path 216366" d="M171.16,192.546l1.138-3.209a10.105,10.105,0,0,1,3.755-4.882l2.413-1.673a1.047,1.047,0,0,1,1.445.262,17.4,17.4,0,0,1,3.186,7.465,1.946,1.946,0,0,1-.8,1.753l-5.189,3.482c-.819.637-1.787.956-2.526.228Z" transform="translate(-62.313 -154.279)" fill="#b25b52"/>
        <path id="Path_216367" data-name="Path 216367" d="M179.3,192.784,175.575,208.4c-.114.512-.25,1-.376,1.491-3.141,11.653-9.2,17.844-11.972,16.41s-8.888-8.262-8.888-8.262l6.908-5.451,1.98,1.661,10.811-23.352,1.536-3.255S180.423,187.606,179.3,192.784Z" transform="translate(-64.634 -153.583)" fill="#b25b52"/>
        <path id="Path_216368" data-name="Path 216368" d="M173.043,205.88l-.353,1.5h0C172.781,206.881,172.918,206.392,173.043,205.88Z" transform="translate(-62.101 -151.066)" fill="#b25b52"/>
        <path id="Path_216369" data-name="Path 216369" d="M156.508,198.276c6.327,5.178,10.242,16.194,10.242,16.194l-10.242,6.5s-13.428-9.525-12.381-18.572C144.878,195.465,148.69,191.858,156.508,198.276Z" transform="translate(-66.051 -152.577)" fill="#263238"/>
        <path id="Path_216370" data-name="Path 216370" d="M149.8,217.043l3.619,3.846,14.088-9.058-2.185-4.461Z" transform="translate(-65.26 -150.86)" fill="#ffab00"/>
      </g>
      <path id="Path_216371" data-name="Path 216371" d="M196.29,164.373l7.34-17.593L209.468,150Z" transform="translate(-56.885 -146.78)" fill="#263238"/>
      <path id="Path_216372" data-name="Path 216372" d="M196.95,168.729l19.039-1.081-1.115-6.578Z" transform="translate(-56.794 -144.808)" fill="#263238"/>
      <path id="Path_216373" data-name="Path 216373" d="M201.13,164.442l14.555-16.922,5.758,6.327Z" transform="translate(-56.217 -146.678)" fill="#263238"/>
      <path id="Path_216374" data-name="Path 216374" d="M73.79,158.48v15.409l14.453,7.647V164.819Z" transform="translate(-73.79 -145.165)" fill="#ffab00"/>
      <path id="Path_216375" data-name="Path 216375" d="M73.79,158.48v15.409l14.453,7.647V164.819Z" transform="translate(-73.79 -145.165)" opacity="0.1"/>
      <path id="Path_216376" data-name="Path 216376" d="M100.931,158.48v15.409L86.49,181.536V164.819Z" transform="translate(-72.037 -145.165)" fill="#ffab00"/>
      <path id="Path_216377" data-name="Path 216377" d="M100.931,158.48v15.409L86.49,181.536V164.819Z" transform="translate(-72.037 -145.165)" opacity="0.2"/>
      <path id="Path_216378" data-name="Path 216378" d="M73.79,159.36,88.243,165.7l14.441-6.339L88.243,152.1Z" transform="translate(-73.79 -146.046)" fill="#ffab00"/>
      <path id="Path_216379" data-name="Path 216379" d="M92.17,161.665v9.571l.751-1.252.455.671.478-1.081.478.671V160.72Z" transform="translate(-71.254 -144.856)" fill="#263238"/>
      <path id="Path_216380" data-name="Path 216380" d="M93.956,162.5,79.23,155.9l2.378-1.206,14.509,6.862Z" transform="translate(-73.039 -145.688)" fill="#263238"/>
    </g>
    <g id="freepik--Device--inject-2" transform="translate(175.514 384.405)">
      <path id="Path_216381" data-name="Path 216381" d="M281.848,406.7H255.31c0-1.809,3.414-3.414,8.171-4.04V391.28h10.185v11.38C278.468,403.309,281.848,404.879,281.848,406.7Z" transform="translate(-140.281 -337.998)" fill="#ffab00"/>
      <path id="Path_216382" data-name="Path 216382" d="M281.848,406.7H255.31c0-1.809,3.414-3.414,8.171-4.04V391.28h10.185v11.38C278.468,403.309,281.848,404.879,281.848,406.7Z" transform="translate(-140.281 -337.998)" opacity="0.4"/>
      <rect id="Rectangle_3465" data-name="Rectangle 3465" width="86.238" height="46.374" transform="translate(85.35 10.175)" fill="#ffab00"/>
      <rect id="Rectangle_3466" data-name="Rectangle 3466" width="86.238" height="46.374" transform="translate(85.35 10.175)" opacity="0.2"/>
      <rect id="Rectangle_3467" data-name="Rectangle 3467" width="81.89" height="38.977" transform="translate(87.353 12.291)" opacity="0.2"/>
      <rect id="Rectangle_3468" data-name="Rectangle 3468" width="10.185" height="2.458" transform="translate(123.2 56.548)" opacity="0.2"/>
      <path id="Path_216383" data-name="Path 216383" d="M262.49,366.37v16.854l14.965-8.433Z" transform="translate(-139.29 -341.435)" fill="#fff"/>
      <path id="Path_216384" data-name="Path 216384" d="M226.929,347.946a2.378,2.378,0,0,1-2.276,2.139H209.518a1.912,1.912,0,0,1-1.946-2.139l.193-2.276h19.414Z" transform="translate(-146.871 -344.292)" fill="#ffab00"/>
      <path id="Path_216385" data-name="Path 216385" d="M198.808,350.833l-5.8,66.2a5.747,5.747,0,0,0,5.815,6.373H226.37a7.1,7.1,0,0,0,6.93-6.373l5.792-66.2a5.747,5.747,0,0,0-5.815-6.373H205.727a7.1,7.1,0,0,0-6.919,6.373Z" transform="translate(-148.884 -344.459)" fill="#ffab00"/>
      <g id="Group_9134" data-name="Group 9134" transform="translate(44.086)" opacity="0.4">
        <path id="Path_216386" data-name="Path 216386" d="M226.929,347.946a2.378,2.378,0,0,1-2.276,2.139H209.518a1.912,1.912,0,0,1-1.946-2.139l.193-2.276h19.414Z" transform="translate(-190.957 -344.292)"/>
        <path id="Path_216387" data-name="Path 216387" d="M198.808,350.833l-5.8,66.2a5.747,5.747,0,0,0,5.815,6.373H226.37a7.1,7.1,0,0,0,6.93-6.373l5.792-66.2a5.747,5.747,0,0,0-5.815-6.373H205.727a7.1,7.1,0,0,0-6.919,6.373Z" transform="translate(-192.97 -344.459)" fill="#ffab00"/>
      </g>
      <path id="Path_216388" data-name="Path 216388" d="M203.955,345.66h27.551a4.552,4.552,0,0,1,4.552,5.041l-5.781,66.2a5.69,5.69,0,0,1-5.485,5.041H197.275a4.552,4.552,0,0,1-4.552-5.041l5.792-66.2A5.61,5.61,0,0,1,203.955,345.66Z" transform="translate(-148.922 -344.293)" fill="#ffab00"/>
      <path id="Path_216389" data-name="Path 216389" d="M203.955,345.66h27.551a4.552,4.552,0,0,1,4.552,5.041l-5.781,66.2a5.69,5.69,0,0,1-5.485,5.041H197.275a4.552,4.552,0,0,1-4.552-5.041l5.792-66.2A5.61,5.61,0,0,1,203.955,345.66Z" transform="translate(-148.922 -344.293)" fill="#fff" opacity="0.3"/>
      <path id="Path_216390" data-name="Path 216390" d="M197.306,350.863l-5.792,66.2a5.758,5.758,0,0,0,5.815,6.373H224.88a7.113,7.113,0,0,0,6.93-6.373l5.781-66.2a5.747,5.747,0,0,0-5.815-6.373h-27.54A7.1,7.1,0,0,0,197.306,350.863Zm1.331,0a5.61,5.61,0,0,1,5.485-5.041h27.551a4.552,4.552,0,0,1,4.552,5.041l-5.781,66.2a5.69,5.69,0,0,1-5.485,5.041H197.443a4.552,4.552,0,0,1-4.552-5.041Z" transform="translate(-149.089 -344.455)" fill="#fff"/>
      <path id="Path_216391" data-name="Path 216391" d="M225.613,345.69h0a3.858,3.858,0,0,1-3.767,3.414H209.385a3.129,3.129,0,0,1-3.164-3.414h19.414Z" transform="translate(-147.057 -344.289)" fill="#fff"/>
      <path id="Path_216392" data-name="Path 216392" d="M212.562,381.7l-5.337-1.047c1.013,4.871-1.707,10.242-4.017,13.656-1.138,1.661-.683,4.176.728,4.461l3.482.683C211.629,400.3,212.562,381.7,212.562,381.7Z" transform="translate(-147.56 -339.465)" fill="#ffab00"/>
      <path id="Path_216393" data-name="Path 216393" d="M215.415,384l-12.245-2.4a7.386,7.386,0,0,1-5.8-8.649h0a7.374,7.374,0,0,1,8.637-5.8l12.245,2.4a7.386,7.386,0,0,1,5.815,8.637h0A7.4,7.4,0,0,1,215.415,384Z" transform="translate(-148.296 -341.347)" fill="#ffab00"/>
      <path id="Path_216394" data-name="Path 216394" d="M215.415,384l-12.245-2.4a7.386,7.386,0,0,1-5.8-8.649h0a7.374,7.374,0,0,1,8.637-5.8l12.245,2.4a7.386,7.386,0,0,1,5.815,8.637h0A7.4,7.4,0,0,1,215.415,384Z" transform="translate(-148.296 -341.347)" opacity="0.3"/>
      <path id="Path_216395" data-name="Path 216395" d="M183.92,387.991l20.871-.273c1.809.353,6.407-23.079,4.552-23.431l-19.221-8.137Z" transform="translate(-150.133 -342.846)" fill="#ffab00"/>
      <path id="Path_216396" data-name="Path 216396" d="M188.762,372.4c-1.718,8.785-3.869,15.773-4.791,15.591s-.273-7.454,1.457-16.251,3.869-15.773,4.791-15.591S190.492,363.6,188.762,372.4Z" transform="translate(-150.184 -342.846)" fill="#ffab00"/>
      <path id="Path_216397" data-name="Path 216397" d="M188.762,372.4c-1.718,8.785-3.869,15.773-4.791,15.591s-.273-7.454,1.457-16.251,3.869-15.773,4.791-15.591S190.492,363.6,188.762,372.4Z" transform="translate(-150.184 -342.846)" opacity="0.3"/>
      <path id="Path_216398" data-name="Path 216398" d="M183.559,370.577c.421-2.151,2.572-3.778,3.6-3.585s1.514,2.105,1.138,4.256-1.593,3.733-2.617,3.539S183.138,372.693,183.559,370.577Z" transform="translate(-150.193 -341.352)" fill="#ffab00"/>
      <path id="Path_216399" data-name="Path 216399" d="M217.914,387.482l-2.8-2.97a12.1,12.1,0,0,0-6.418-3.528l-3.414-.671a1.252,1.252,0,0,0-1.457.967c-.41,2.037-1.013,6.248.091,9.65a2.276,2.276,0,0,0,1.7,1.536l7.317,1.32c1.195.3,2.4.182,2.856-.967Z" transform="translate(-147.46 -339.514)" fill="#ffc0ba"/>
      <path id="Path_216400" data-name="Path 216400" d="M214.89,393.973l12.6,16.694,1.252-14.35-12.245-9.707S211.18,388.886,214.89,393.973Z" transform="translate(-146.041 -338.642)" fill="#ffc0ba"/>
      <path id="Path_216401" data-name="Path 216401" d="M180.822,368.563l-14.5-12.393-3.744,5.519Z" transform="translate(-153.078 -342.843)" fill="#fff"/>
      <path id="Path_216402" data-name="Path 216402" d="M182.888,372.32l-17.468,7.625-1.98-6.361Z" transform="translate(-152.959 -340.614)" fill="#fff"/>
      <path id="Path_216403" data-name="Path 216403" d="M177.138,370.415l-20.621-8.535-2.287,8.25Z" transform="translate(-154.23 -342.055)" fill="#fff"/>
    </g>
    <g id="freepik--Target--inject-2" transform="translate(227.327 176.618)">
      <path id="Path_216404" data-name="Path 216404" d="M213.01,231.595,209.3,251.1h4.643l6.5-15.613S219.974,230.661,213.01,231.595Z" transform="translate(-198.443 -152.265)" fill="#ffab00"/>
      <path id="Path_216405" data-name="Path 216405" d="M249.161,231.595l3.71,19.505h-4.643l-6.5-15.613S242.2,230.661,249.161,231.595Z" transform="translate(-193.968 -152.265)" fill="#ffab00"/>
      <path id="Path_216406" data-name="Path 216406" d="M213.01,231.595,209.3,251.1h4.643l6.5-15.613S219.974,230.661,213.01,231.595Z" transform="translate(-198.443 -152.265)" opacity="0.3"/>
      <path id="Path_216407" data-name="Path 216407" d="M249.161,231.595l3.71,19.505h-4.643l-6.5-15.613S242.2,230.661,249.161,231.595Z" transform="translate(-193.968 -152.265)" opacity="0.3"/>
      <circle id="Ellipse_355" data-name="Ellipse 355" cx="34.834" cy="34.834" r="34.834" transform="translate(0 20.211)" fill="#ffab00"/>
      <circle id="Ellipse_356" data-name="Ellipse 356" cx="26.914" cy="26.914" r="26.914" transform="translate(8.364 28.131)" fill="#fff"/>
      <circle id="Ellipse_357" data-name="Ellipse 357" cx="21.622" cy="21.622" r="21.622" transform="translate(13.212 33.423)" fill="#ffab00"/>
      <circle id="Ellipse_358" data-name="Ellipse 358" cx="16.706" cy="16.706" r="16.706" transform="translate(18.128 38.339)" fill="#fff"/>
      <circle id="Ellipse_359" data-name="Ellipse 359" cx="4.825" cy="4.825" r="4.825" transform="translate(30.009 50.22)" fill="#ffab00"/>
      <path id="Path_216408" data-name="Path 216408" d="M265.71,161.87V170.7l-9.5,11.38H256.2l-1.787-6.9Z" transform="translate(-192.218 -161.87)" fill="#ffab00"/>
      <rect id="Rectangle_3469" data-name="Rectangle 3469" width="60.246" height="1.297" transform="translate(34.339 54.63) rotate(-50.07)" fill="#263238"/>
      <path id="Path_216409" data-name="Path 216409" d="M273.367,169.789l-9.423,11.221H255.99l9.5-11.38Z" transform="translate(-192 -160.799)" fill="#ffab00"/>
      <path id="Path_216410" data-name="Path 216410" d="M273.367,169.789l-9.423,11.221H255.99l9.5-11.38Z" transform="translate(-192 -160.799)" opacity="0.2"/>
    </g>
    <g id="freepik--Money--inject-2" transform="translate(297.109 225.909)">
      <path id="Path_216411" data-name="Path 216411" d="M272.367,215.217l-3.027-5.69s2.276-4.176,5.11-4.336,5.69,2.276,5.69,2.276l3.562-1.479-2.674,10.06S276.179,220.053,272.367,215.217Z" transform="translate(-259.94 -205.183)" fill="#ffab00"/>
      <path id="Path_216412" data-name="Path 216412" d="M296.984,235.437c0,12.768-8.034,17.958-17.946,17.958a17.958,17.958,0,0,1-17.958-17.958c0-9.912,8.034-22.567,17.958-22.567C279.038,212.87,296.984,223.749,296.984,235.437Z" transform="translate(-261.08 -204.123)" fill="#ffab00"/>
      <path id="Path_216413" data-name="Path 216413" d="M296.984,235.437c0,12.768-8.034,17.958-17.946,17.958a17.958,17.958,0,0,1-17.958-17.958c0-9.912,8.034-22.567,17.958-22.567C279.038,212.87,296.984,223.749,296.984,235.437Z" transform="translate(-261.08 -204.123)" opacity="0.2"/>
      <path id="Path_216414" data-name="Path 216414" d="M283.591,235.929c0,2.572-2.071,4.3-5.314,4.552l-.432,2.128H275.91l.421-2.128a9.286,9.286,0,0,1-4.461-1.5l1.309-2.4a7.443,7.443,0,0,0,3.664,1.377l.66-3.277c-1.809-.546-3.79-1.263-3.79-3.607,0-2.583,2.117-4.324,5.417-4.552l.421-2.128H281.5l-.432,2.151a8.478,8.478,0,0,1,3.573,1.138l-1.138,2.413a6.338,6.338,0,0,0-2.89-1.013l-.683,3.414C281.668,233.05,283.591,233.687,283.591,235.929Zm-5.553-4.017.569-2.788c-1.138.216-1.73.808-1.753,1.548S277.344,231.639,278.038,231.912Zm2.413,4.552c0-.569-.444-.91-1.138-1.138l-.523,2.652C279.847,237.7,280.451,237.17,280.451,236.464Z" transform="translate(-259.591 -202.533)" fill="#fff"/>
    </g>
  </g>
</svg>
