<?xml version="1.0" encoding="utf-8"?>
<!-- Svg Vector Icons : http://www.onlinewebfonts.com/icon -->
<!DOCTYPE svg PUBLIC "-//W3C//DTD SVG 1.1//EN" "http://www.w3.org/Graphics/SVG/1.1/DTD/svg11.dtd">
<svg version="1.1" xmlns="http://www.w3.org/2000/svg" xmlns:xlink="http://www.w3.org/1999/xlink" x="0px" y="0px" viewBox="0 0 256 256" enable-background="new 0 0 256 256" xml:space="preserve">
<metadata> Svg Vector Icons : http://www.onlinewebfonts.com/icon </metadata>
<g><g><path stroke-width="6" fill-opacity="0" stroke="#000000"  d="M128,10C62.8,10,10,62.8,10,128c0,65.2,52.8,118,118,118c65.2,0,118-52.8,118-118C246,62.8,193.2,10,128,10z M144.1,215.3c34.7-39.5-41-31.9-5.2-88.1c-68.3,32.9-28,82.5-24.8,88.2c-48.4-12.9-47.1-59-34.5-85.5c0.7-1.5,3.8-7.1,5.2-9.1c4.6-6.7,23.4-26.8,20-46.6c0,0,12.2,15.8,7.3,40.5c21.5-23.9,25.5-61.9,22.3-76.5C182.7,72,221.1,187.9,144.1,215.3z"/></g></g>
</svg>